<svg width="762" height="236" viewBox="0 0 762 236" fill="none" xmlns="http://www.w3.org/2000/svg">
<mask id="mask0_159_570" style="mask-type:luminance" maskUnits="userSpaceOnUse" x="54" y="53" width="654" height="130">
<path d="M707.232 53.3776H54.7679V182.622H707.232V53.3776Z" fill="white"/>
</mask>
<g mask="url(#mask0_159_570)">
<path d="M581.881 113.198C581.881 101.963 577.894 94.3074 569.967 90.2516C562.039 86.2154 552.95 84.194 542.733 84.194C527.028 84.194 515.943 88.2889 509.49 96.5049C508.335 98.0242 507.317 99.6413 506.43 101.389L511.839 86.4044H485.623L465.762 155.229L446.318 86.4044H418.908H398.068L367.52 121.661V53.3776H343.425V84.3439C342.328 84.2853 341.578 84.2461 341.271 84.2266C340.945 84.1874 340.56 84.1875 340.117 84.1875C332.802 84.1875 326.852 86.0915 322.291 89.9191C319.499 92.1882 316.21 96.4397 312.439 102.673V86.3979H289.153V125.039C285.473 101.532 265.344 83.9918 239.069 83.9918C212.814 83.9918 192.627 101.591 188.719 124.674L188.738 120.905C188.738 114.847 188.451 110.25 187.871 107.114C186.964 102.38 185.195 98.3828 182.559 95.129C179.304 91.1254 175.689 88.3411 171.683 86.7435C167.677 85.146 163.638 84.3374 159.521 84.3374C153.362 84.3374 147.764 85.6285 142.74 88.2041C138.003 90.7602 134.023 94.7834 130.826 100.267C128.999 95.7094 126.324 91.96 122.781 89.0518C118.39 85.9154 112.615 84.3374 105.477 84.3374C97.9545 84.3374 91.8148 86.1632 87.0583 89.8212C84.3832 91.8818 81.5319 95.3246 78.4915 100.189V86.5675H54.7679V179.708H79.5223V123.565C79.5223 118.486 80.1748 114.658 81.4863 112.083C83.8939 107.583 88.572 105.334 95.5338 105.334C101.517 105.334 105.562 107.583 107.604 112.083C108.759 114.6 109.32 118.623 109.32 124.165V179.721H133.918V124.165C133.918 119.992 134.571 116.432 135.882 113.452C138.44 107.877 143.098 105.066 149.838 105.066C155.671 105.066 159.651 107.238 161.831 111.567C162.986 113.856 163.547 116.777 163.547 120.299V179.714H188.569L188.686 140.956C192.457 164.365 212.534 181.814 238.73 181.814C265.155 181.814 285.44 163.987 289.159 140.656V179.721H313.737V135.107C313.737 127.641 314.684 122.105 316.569 118.505C319.936 112.122 326.539 108.927 336.358 108.927C337.089 108.927 338.074 108.946 339.262 109.005C340.456 109.064 341.898 109.181 343.438 109.35V179.714H367.533V150.209L377.679 139.645L400.143 179.714H429.746L395.68 122.255L421.629 93.8836L452.425 179.714H478.198L503.872 108.561C503.239 111.078 502.835 113.752 502.658 116.621H526.219C526.8 113.022 527.935 110.179 529.644 108.059C532.052 105.21 536.13 103.788 541.885 103.788C547.026 103.788 550.928 104.499 553.59 105.96C556.245 107.42 557.576 110.055 557.576 113.882C557.576 117.019 555.828 119.327 552.344 120.807C550.399 121.674 547.183 122.385 542.661 122.939L534.368 123.976C524.934 125.169 517.796 127.171 512.948 129.956C504.094 135.094 499.67 143.401 499.67 154.864C499.67 163.713 502.443 170.54 507.943 175.371C513.45 180.197 520.438 182.603 528.888 182.603C535.51 182.603 541.454 181.103 546.713 178.064C551.104 175.508 554.986 172.392 558.359 168.734V179.695H581.979V162.265C581.939 159.918 581.92 157.825 581.92 155.973V113.198H581.881ZM239.063 158.848C224.337 158.848 214.328 146.746 214.328 132.903C214.328 118.707 223.449 106.951 238.717 106.951C253.456 106.951 263.452 119.053 263.452 132.903C263.452 147.111 254.324 158.848 239.063 158.848ZM557.452 143.421C557.276 151.578 554.986 157.192 550.562 160.289C546.139 163.367 541.304 164.906 536.052 164.906C532.744 164.906 529.931 163.96 527.661 162.076C525.312 160.25 524.138 157.251 524.138 153.091C524.138 148.415 526.023 144.953 529.794 142.723C532.026 141.412 535.706 140.297 540.841 139.397L546.328 138.361C549.062 137.858 551.215 137.304 552.794 136.704C554.353 136.111 555.913 135.322 557.452 134.337V143.421Z" fill="#111111"/>
</g>
<mask id="mask1_159_570" style="mask-type:luminance" maskUnits="userSpaceOnUse" x="54" y="53" width="654" height="130">
<path d="M707.232 53.3776H54.7679V182.622H707.232V53.3776Z" fill="white"/>
</mask>
<g mask="url(#mask1_159_570)">
<path d="M652.464 124.98C622.216 124.98 597.696 149.485 597.696 179.714H707.226C707.232 149.478 682.713 124.98 652.464 124.98Z" fill="#111111"/>
</g>
</svg>
